<svg width="71" height="71" viewBox="0 0 71 71" fill="none" xmlns="http://www.w3.org/2000/svg">
<path d="M50.1019 30.4852C47.5403 30.4852 45.4563 32.5692 45.4563 35.1308C45.4563 37.6924 47.5403 39.7764 50.1019 39.7764C52.6635 39.7764 54.7474 37.6924 54.7474 35.1308C54.7473 32.5692 52.6633 30.4852 50.1019 30.4852Z" fill="black"/>
<path d="M19.1153 30.4852C16.5537 30.4852 14.4697 32.5692 14.4697 35.1308C14.4697 37.6924 16.5537 39.7764 19.1153 39.7764C21.6769 39.7764 23.7609 37.6924 23.7609 35.1308C23.7607 32.5692 21.6767 30.4852 19.1153 30.4852Z" fill="black"/>
<path fill-rule="evenodd" clip-rule="evenodd" d="M70.2118 33.8752C69.548 15.0834 54.0566 0 35.106 0C16.1554 0 0.663824 15.0836 0 33.8752V36.3864C0.663824 55.1782 16.1553 70.2616 35.1058 70.2616C54.0564 70.2616 69.548 55.1782 70.2117 36.3864L70.2118 33.8752ZM67.6991 33.8752C67.0368 16.4684 52.6718 2.51107 35.106 2.51107C17.5401 2.51107 3.1752 16.4685 2.51288 33.8752V36.3864C3.1752 53.7932 17.5402 67.7505 35.106 67.7505C52.6718 67.7505 67.0368 53.7932 67.6992 36.3864L67.6991 33.8752Z" fill="black"/>
<path d="M35.1058 46C27 46 28 51.5 29.5 54C31.5 57 31.8161 58.8877 35.106 59C38.0112 59.1123 40 57 41 54.5C42 52 45.4563 46 35.1058 46Z" fill="black"/>
</svg>
