<svg width="170" height="157" viewBox="0 0 170 157" fill="none" xmlns="http://www.w3.org/2000/svg">
<path d="M167.228 75.6943H162.486C161.021 33.704 126.819 0 84.9796 0C43.1406 0 8.9383 33.7044 7.47271 75.6943H2.77213C1.2408 75.6943 0 76.9505 0 78.5C0 80.0495 1.2408 81.3057 2.77213 81.3057H7.47271C8.9383 123.296 43.1402 157 84.9792 157C126.818 157 161.021 123.296 162.486 81.3057H167.228C168.759 81.3057 170 80.0495 170 78.5C170 76.9505 168.76 75.6943 167.228 75.6943ZM84.9796 5.61101C123.761 5.61101 155.476 36.7987 156.939 75.6943H144.359C142.968 62.2887 131.737 51.805 118.129 51.805C104.521 51.805 93.2897 62.2887 91.8995 75.6943H78.1012C76.711 62.2887 65.4793 51.805 51.8714 51.805C38.264 51.805 27.032 62.2887 25.6418 75.6943H13.0206C14.4829 36.799 46.1976 5.61101 84.9796 5.61101ZM138.961 78.5C138.961 90.1256 129.616 99.5841 118.129 99.5841C106.642 99.5841 97.2973 90.1256 97.2973 78.5C97.2973 66.8744 106.642 57.4163 118.129 57.4163C129.616 57.4163 138.961 66.8747 138.961 78.5ZM72.7037 78.5C72.7037 90.1256 63.3583 99.5841 51.8717 99.5841C40.385 99.5841 31.04 90.1256 31.04 78.5C31.04 66.8744 40.3847 57.4163 51.8717 57.4163C63.3583 57.4163 72.7037 66.8747 72.7037 78.5ZM84.9796 151.389C46.1979 151.389 14.4829 120.201 13.0206 81.3057H25.6422C27.0324 94.7113 38.264 105.195 51.8717 105.195C65.4793 105.195 76.7113 94.7117 78.1015 81.3057H91.8998C93.29 94.7113 104.522 105.195 118.129 105.195C131.737 105.195 142.969 94.7117 144.359 81.3057H156.939C155.476 120.201 123.761 151.389 84.9796 151.389Z" fill="#F28C4B"/>
<path d="M103.066 109.278C101.983 108.183 100.228 108.183 99.1451 109.278C91.334 117.184 78.6245 117.184 70.8131 109.278C69.731 108.182 67.9756 108.183 66.8931 109.278C65.8107 110.374 65.8107 112.151 66.8935 113.246C71.8796 118.293 78.4299 120.816 84.9796 120.816C91.5299 120.816 98.0792 118.292 103.066 113.246C104.149 112.15 104.149 110.374 103.066 109.278Z" fill="#F28C4B"/>
<path d="M51.8716 68.1194C46.2161 68.1194 41.6152 72.7761 41.6152 78.5C41.6152 84.2239 46.2161 88.8805 51.8716 88.8805C57.5271 88.8805 62.1281 84.2239 62.1281 78.5C62.1278 72.7761 57.5268 68.1194 51.8716 68.1194Z" fill="#F28C4B"/>
<path d="M118.087 68.1194C112.432 68.1194 107.831 72.7761 107.831 78.5C107.831 84.2239 112.432 88.8805 118.087 88.8805C123.743 88.8805 128.344 84.2239 128.344 78.5C128.344 72.7761 123.743 68.1194 118.087 68.1194Z" fill="#F28C4B"/>
</svg>
